<?xml version="1.0" encoding="UTF-8" standalone="no"?>
<svg
   fill="none"
   height="24"
   viewBox="0 0 24 24"
   width="24"
   version="1.1"
   id="svg14"
   sodipodi:docname="delete_dark.svg"
   inkscape:version="1.1.1 (3bf5ae0d25, 2021-09-20)"
   xmlns:inkscape="http://www.inkscape.org/namespaces/inkscape"
   xmlns:sodipodi="http://sodipodi.sourceforge.net/DTD/sodipodi-0.dtd"
   xmlns="http://www.w3.org/2000/svg"
   xmlns:svg="http://www.w3.org/2000/svg">
  <defs
     id="defs18" />
  <sodipodi:namedview
     id="namedview16"
     pagecolor="#ffffff"
     bordercolor="#666666"
     borderopacity="1.0"
     inkscape:pageshadow="2"
     inkscape:pageopacity="0.0"
     inkscape:pagecheckerboard="0"
     showgrid="false"
     inkscape:zoom="29.958333"
     inkscape:cx="12"
     inkscape:cy="12"
     inkscape:window-width="1920"
     inkscape:window-height="1057"
     inkscape:window-x="-8"
     inkscape:window-y="-8"
     inkscape:window-maximized="1"
     inkscape:current-layer="svg14" />
  <g
     stroke="#2a353d"
     stroke-linecap="round"
     stroke-width="1.5"
     id="g12"
     style="fill:none;fill-opacity:1;stroke:#ffffff;stroke-opacity:1">
    <path
       d="m19.5 5.5-.6197 10.0251c-.1584 2.5613-.2375 3.842-.8795 4.7628-.3175.4552-.7261.8394-1.2001 1.1281-.9586.584-2.2417.584-4.808.584-2.56958 0-3.8544 0-4.81365-.5851-.47425-.2892-.88305-.6741-1.20037-1.1301-.6418-.9222-.71923-2.2047-.87407-4.7696l-.60461-10.0152"
       id="path2"
       style="fill:none;fill-opacity:1;stroke:#ffffff;stroke-opacity:1" />
    <path
       d="m21 5.5h-18"
       id="path4"
       style="fill:none;fill-opacity:1;stroke:#ffffff;stroke-opacity:1" />
    <path
       d="m16.0555 5.5-.6826-1.40827c-.4535-.93547-.6803-1.40321-1.0714-1.69492-.0867-.06471-.1786-.12227-.2747-.17211-.4331-.2247-.9529-.2247-1.9925-.2247-1.0657 0-1.5985 0-2.03881.23412-.09758.05189-.1907.11178-.27838.17905-.39566.30353-.61667.78838-1.05869 1.75809l-.60569 1.32874"
       id="path6"
       style="fill:none;fill-opacity:1;stroke:#ffffff;stroke-opacity:1" />
    <path
       d="m9.5 16.5v-6"
       id="path8"
       style="fill:none;fill-opacity:1;stroke:#ffffff;stroke-opacity:1" />
    <path
       d="m14.5 16.5v-6"
       id="path10"
       style="fill:none;fill-opacity:1;stroke:#ffffff;stroke-opacity:1" />
  </g>
</svg>
