<?xml version="1.0" encoding="UTF-8" standalone="no"?>
<svg
   fill="none"
   height="24"
   viewBox="0 0 24 24"
   width="24"
   version="1.1"
   id="svg8"
   sodipodi:docname="add_dark.svg"
   inkscape:version="1.1.1 (3bf5ae0d25, 2021-09-20)"
   xmlns:inkscape="http://www.inkscape.org/namespaces/inkscape"
   xmlns:sodipodi="http://sodipodi.sourceforge.net/DTD/sodipodi-0.dtd"
   xmlns="http://www.w3.org/2000/svg"
   xmlns:svg="http://www.w3.org/2000/svg">
  <defs
     id="defs12" />
  <sodipodi:namedview
     id="namedview10"
     pagecolor="#ffffff"
     bordercolor="#666666"
     borderopacity="1.0"
     inkscape:pageshadow="2"
     inkscape:pageopacity="0.0"
     inkscape:pagecheckerboard="0"
     showgrid="false"
     inkscape:zoom="29.958333"
     inkscape:cx="12"
     inkscape:cy="12"
     inkscape:window-width="1920"
     inkscape:window-height="1057"
     inkscape:window-x="-8"
     inkscape:window-y="-8"
     inkscape:window-maximized="1"
     inkscape:current-layer="svg8" />
  <g
     stroke="#2a353d"
     stroke-linecap="round"
     stroke-linejoin="round"
     stroke-width="1.5"
     id="g6"
     style="fill:#ffffff">
    <path
       d="m12 4v16"
       id="path2"
       style="fill:#ffffff" />
    <path
       d="m4 12h16"
       id="path4"
       style="fill:#ffffff" />
  </g>
  <path
     style="fill:#e6e6e6;stroke:#e6e6e6;stroke-width:0.126159;stroke-linecap:round;stroke-opacity:1"
     d="m 11.849791,20.714985 c -0.258891,-0.06488 -0.474709,-0.262892 -0.546044,-0.500986 -0.02755,-0.09195 -0.0381,-1.145436 -0.0381,-3.803407 V 12.734353 H 7.5894082 c -2.6579711,0 -3.7114625,-0.01055 -3.8034071,-0.0381 C 3.4889452,12.607252 3.2773286,12.317599 3.2773286,12 c 0,-0.317599 0.2116166,-0.607252 0.5086725,-0.696253 0.091945,-0.02755 1.145436,-0.0381 3.8034071,-0.0381 H 11.265647 V 7.5894082 c 0,-2.6579711 0.01055,-3.7114625 0.0381,-3.8034071 0.089,-0.2970559 0.378654,-0.5086725 0.696253,-0.5086725 0.317599,0 0.607252,0.2116166 0.696253,0.5086725 0.02755,0.091945 0.0381,1.145436 0.0381,3.8034071 v 3.6762388 h 3.676239 c 2.657971,0 3.711462,0.01055 3.803407,0.0381 0.297056,0.089 0.508672,0.378654 0.508672,0.696253 0,0.317599 -0.211616,0.607252 -0.508672,0.696253 -0.09195,0.02755 -1.145436,0.0381 -3.803407,0.0381 h -3.676239 v 3.676239 c 0,2.657971 -0.01055,3.711462 -0.0381,3.803407 -0.102676,0.342699 -0.511818,0.584854 -0.846462,0.500986 z"
     id="path1330" />
</svg>
