<svg fill="none" height="24" viewBox="0 0 24 24" width="24" xmlns="http://www.w3.org/2000/svg"><g stroke="#2a353d" stroke-linejoin="round" stroke-width="1.5"><path d="m3.5 10c0-3.77124 0-5.65685 1.2448-6.82843 1.24479-1.17157 3.24826-1.17157 7.2552-1.17157h.7727c3.2612 0 4.8918 0 6.0242.79784.3245.22859.6125.49968.8554.80505.8477 1.06578.8477 2.60047.8477 5.66984v2.54547c0 2.9632 0 4.4447-.4689 5.628-.7539 1.9024-2.3482 3.4029-4.3695 4.1124-1.2572.4414-2.8314.4414-5.97978.4414-1.79907 0-2.6986 0-3.41704-.2522-1.15499-.4054-2.06603-1.2629-2.49682-2.3499-.26796-.6762-.26796-1.5228-.26796-3.2161z"/><g stroke-linecap="round"><path d="m20.5 12c0 1.8409-1.4924 3.3333-3.3333 3.3333-.6658 0-1.4507-.1166-2.0981.0568-.5751.1541-1.0244.6034-1.1785 1.1785-.1734.6474-.0568 1.4323-.0568 2.0981 0 1.8409-1.4924 3.3333-3.3333 3.3333"/><path d="m8 7h7"/><path d="m8 11h3"/></g></g></svg>